<svg height="512" viewBox="0 0 64 64" width="512" xmlns="http://www.w3.org/2000/svg"><g id="Icons"><g><g><circle cx="32" cy="32" fill="#00a0c8" r="26"/></g><g><g><g><path d="m36 14h-8c-3.314 0-6 2.686-6 6v6h20v-6c0-3.314-2.686-6-6-6z" fill="#0a5078"/></g><path d="m20 55.071c3.59 1.871 7.671 2.929 12 2.929s8.41-1.058 12-2.929v-15.071h-24z" fill="#c80a50"/><path d="m31.07 44.6.93 1.4-.99.49c.159 4.57 2.508 8.582 6.029 11.022 2.463-.484 4.801-1.315 6.961-2.441v-15.071h-11.65c-.68 1.42-1.12 2.97-1.28 4.6z" fill="#a00028"/><g><path d="m25.75 40 1.645 6.581c.31 1.241 1.69 1.876 2.835 1.304l1.77-.885 1.77.885c1.144.572 2.524-.062 2.835-1.304l1.645-6.581z" fill="#a00028"/></g><g><path d="m28 34h8v6h-8z" fill="#d2aa82"/></g><g><path d="m33.667 38h-3.333c-4.603 0-8.334-3.731-8.334-8.333v-3.667c1.105 0 2-.895 2-2v-4h16v4c0 1.105.895 2 2 2v3.667c0 4.602-3.731 8.333-8.333 8.333z" fill="#f0c8a0"/></g><g><path d="m22 30v-6c-1.105 0-2 .895-2 2v2c0 1.105.895 2 2 2z" fill="#d2aa82"/></g><g><path d="m42 30v-6c1.105 0 2 .895 2 2v2c0 1.105-.895 2-2 2z" fill="#d2aa82"/></g><path d="m12 48v.614c2.202 2.648 4.92 4.852 8 6.457v-15.071c-4.418 0-8 3.582-8 8z" fill="#a00028"/><path d="m52 48.614v-.614c0-4.418-3.582-8-8-8v15.071c3.08-1.606 5.798-3.809 8-6.457z" fill="#a00028"/><g><path d="m36 40-4 6-4-6z" fill="#d2aa82"/></g><g><path d="m32 46-1.77.885c-1.144.572-2.524-.062-2.835-1.304l-1.395-5.581h2z" fill="#f0f0f0"/></g><g><path d="m32 46 1.77.885c1.144.572 2.524-.062 2.835-1.304l1.395-5.581h-2z" fill="#f0f0f0"/></g></g><g><path d="m38 20h-14v-4c0-2.209 1.791-4 4-4h10c2.209 0 4 1.791 4 4 0 2.209-1.791 4-4 4z" fill="#0a5078"/></g></g><g><path d="m41.53 32.43c-1.14 3.25-4.23 5.57-7.86 5.57h-.15c1.88-2.71 4.71-4.72 8.01-5.57z" fill="#d2aa82"/></g><g><path d="m32 46-.99.49c-.01-.16-.01-.33-.01-.49 0-.47.02-.94.07-1.4z" fill="#d2d2d2"/></g><g><circle cx="46" cy="46" fill="#fab400" r="14"/></g><g><path d="m52 43v-2c0-3.309-2.691-6-6-6s-6 2.691-6 6v2c-1.105 0-2 .895-2 2v10c0 1.105.895 2 2 2h12c1.105 0 2-.895 2-2v-10c0-1.105-.895-2-2-2zm-10 0v-2c0-2.206 1.794-4 4-4s4 1.794 4 4v2z" fill="#dc9600"/></g><g><path d="m52 56h-12c-1.105 0-2-.895-2-2v-10c0-1.105.895-2 2-2h12c1.105 0 2 .895 2 2v10c0 1.105-.895 2-2 2z" fill="#0a5078"/></g><g><path d="m52 42h-2v-2c0-2.206-1.794-4-4-4s-4 1.794-4 4v2h-2v-2c0-3.309 2.691-6 6-6s6 2.691 6 6z" fill="#f0f0f0"/></g><path d="m48 46c0-1.105-.895-2-2-2s-2 .895-2 2c0 .74.402 1.386 1 1.732v4.268c0 .553.447 1 1 1s1-.447 1-1v-4.268c.598-.346 1-.992 1-1.732z" fill="#00143c"/></g></g></svg>