<svg id="Money" height="512" viewBox="0 0 64 64" width="512" xmlns="http://www.w3.org/2000/svg"><path d="m56 17.22v25.56c0 1.78-1.42 3.22-3.17 3.22h-45.66c-1.75 0-3.17-1.44-3.17-3.22v-25.56c0-1.78 1.42-3.22 3.17-3.22h45.66c1.75 0 3.17 1.44 3.17 3.22z" fill="#3bb54a"/><path d="m56 17.22v25.78c0 1.66-1.34 3-3 3h-45.83c-1.39 0-2.56-.9-2.99-2.16.31.1.64.16.99.16h45.66c1.75 0 3.17-1.44 3.17-3.22v-25.56c0-.37-.06-.73-.18-1.06 1.27.42 2.18 1.63 2.18 3.06z" fill="#34a53e"/><g fill="#0e9347"><path d="m40.41 30c0 7.54-4.66 13.65-10.41 13.65-13.79-.64-13.79-26.66 0-27.3 5.75 0 10.41 6.11 10.41 13.65z"/><path d="m9 26c.55 0 1-.45 1-1v-4.34c0-.36.38-.66.83-.66h4.17c.55 0 1-.45 1-1s-.45-1-1-1h-4.17c-1.56 0-2.83 1.19-2.83 2.66v4.34c0 .55.45 1 1 1z"/><path d="m45 20h4.17c.45 0 .83.3.83.66v4.34c0 1.31 2 1.31 2 0v-4.34c0-1.47-1.27-2.66-2.83-2.66h-4.17c-1.31 0-1.31 1.99 0 2z"/><path d="m45 42h4.17c1.56 0 2.83-1.19 2.83-2.66v-4.34c0-.55-.45-1-1-1s-1 .45-1 1v4.34c0 .36-.38.66-.83.66h-4.17c-1.31 0-1.31 2 0 2z"/><path d="m15 42c1.31 0 1.31-1.99 0-2h-4.17c-.45 0-.83-.3-.83-.66v-4.34c0-.55-.45-1-1-1s-1 .45-1 1v4.34c0 1.47 1.27 2.66 2.83 2.66z"/></g><path d="m27 39.42v1.56c0 1.31 1.99 1.31 2 0v-1.12c.66.06 1.36.04 2-.06v1.18c0 1.31 1.99 1.31 2 0v-1.75c4.63-1.94 4.64-7.66 0-9.58v-6.93c1.21.63 2 1.65 2 2.81 0 .55.45 1 1 1s1-.45 1-1c0-2.22-1.65-4.13-4-4.98v-1.53c0-1.31-1.99-1.31-2 0v1.08c-.66-.06-1.36-.04-2 .06v-1.14c0-1.31-1.99-1.31-2 0v1.72c-4.63 1.95-4.64 7.61 0 9.56v6.95c-1.21-.63-2-1.65-2-2.81 0-.55-.45-1-1-1s-1 .45-1 1c0 2.22 1.65 4.12 4 4.98zm7.51-4.98c0 .99-.59 1.88-1.51 2.52v-5.02c.92.64 1.51 1.52 1.51 2.5zm-4.27-12.38c.26 0 .51.03.76.06v6.96c-.65-.1-1.36-.08-2-.21v-6.66c.4-.08.81-.14 1.24-.14zm-4.76 3.46c0-.99.59-1.88 1.51-2.52v5.02c-.93-.63-1.51-1.52-1.51-2.51zm3.51 5.36c.65.11 1.35.09 2 .23v6.66c-.63.14-1.35.18-2 .08v-6.96z" fill="#89c763"/><path d="m60 21.58v25.23c0 1.76-1.42 3.19-3.16 3.19h-45.36c-2.17-.01-3.4-1.96-3.16-4h44.68c1.66 0 3-1.34 3-3v-24.61c2.08-.24 3.96.96 4 3.19z" fill="#0e9347"/><path d="m60 21.58v25.23c0 1.76-1.42 3.19-3.16 3.19h-45.36c-1.31-.01-2.28-.72-2.79-1.74.46.28 1.01.45 1.64.45h45.36c1.74 0 3.16-1.43 3.16-3.19v-25.23c0-.5-.11-.98-.33-1.4.89.56 1.48 1.55 1.48 2.69z" fill="#09823a"/></svg>